<svg width="18" height="12" viewBox="0 0 18 12" fill="none" xmlns="http://www.w3.org/2000/svg">
<path d="M17.0303 5.46969L11.7802 0.219689C11.6388 0.0830709 11.4493 0.00747481 11.2527 0.00918363C11.0561 0.0108924 10.8679 0.0897693 10.7289 0.228825C10.5898 0.367882 10.511 0.555991 10.5092 0.752638C10.5075 0.949286 10.5831 1.13874 10.7198 1.28019L14.6895 5.24994H1.5C1.30109 5.24994 1.11032 5.32896 0.96967 5.46961C0.829018 5.61026 0.75 5.80103 0.75 5.99994C0.75 6.19885 0.829018 6.38962 0.96967 6.53027C1.11032 6.67092 1.30109 6.74994 1.5 6.74994H14.6895L10.7198 10.7197C10.6481 10.7889 10.591 10.8716 10.5517 10.9631C10.5124 11.0546 10.4917 11.1531 10.4908 11.2526C10.4899 11.3522 10.5089 11.451 10.5466 11.5432C10.5843 11.6353 10.64 11.7191 10.7105 11.7895C10.7809 11.8599 10.8646 11.9156 10.9568 11.9533C11.049 11.991 11.1477 12.01 11.2473 12.0091C11.3469 12.0083 11.4453 11.9876 11.5368 11.9483C11.6283 11.909 11.7111 11.8518 11.7802 11.7802L17.0303 6.53019C17.1709 6.38954 17.2498 6.19881 17.2498 5.99994C17.2498 5.80107 17.1709 5.61034 17.0303 5.46969Z" fill="#102D47"/>
</svg>
